<svg width="16" height="16" viewBox="0 0 16 16" fill="none" xmlns="http://www.w3.org/2000/svg">
<path d="M0 8V6H4V8C4 10.1319 5.66775 11.8742 7.76975 11.9935C7.29123 12.525 7 13.2285 7 14V15.9381C3.05369 15.446 0 12.0796 0 8Z" fill="white"/>
<path d="M8 0C12.4183 0 16 3.58172 16 8C16 9.0609 15.7935 10.0736 15.4185 11H15C13.9565 11 13.0375 11.5327 12.5 12.3411C12.0649 11.6867 11.3797 11.2129 10.5808 11.0562C11.4488 10.3224 12 9.22559 12 8C12 5.79086 10.2091 4 8 4H0V0H8Z" fill="white"/>
<path fill-rule="evenodd" clip-rule="evenodd" d="M12 16L11 16L11 15L9 15L9 16L8 16L8 14C8 12.8954 8.89543 12 10 12C11.1046 12 12 12.8954 12 14L12 16ZM11 14C11 13.4477 10.5523 13 10 13C9.44772 13 9 13.4477 9 14L11 14Z" fill="white"/>
<path d="M16 12L16 13L15 13C14.4477 13 14 13.4477 14 14C14 14.5523 14.4477 15 15 15L16 15L16 16L15 16C13.8954 16 13 15.1046 13 14C13 12.8954 13.8954 12 15 12L16 12Z" fill="white"/>
</svg>
